<svg xmlns="http://www.w3.org/2000/svg" xmlns:xlink="http://www.w3.org/1999/xlink" width="20" height="20" viewBox="0 0 20 20">
  <defs>
    <path id="apps-a" d="M17,0 L3,0 C1.3,0 0,1.3 0,3 L0,17 C0,18.7 1.3,20 3,20 L17,20 C18.7,20 20,18.7 20,17 L20,3 C20,1.3 18.7,0 17,0 Z M3,2 L17,2 C17.6,2 18,2.4 18,3 L18,6 L2,6 L2,3 C2,2.4 2.4,2 3,2 Z M2,17 L2,8 L6,8 L6,18 L3,18 C2.4,18 2,17.6 2,17 Z M17,18 L8,18 L8,8 L18,8 L18,17 C18,17.6 17.6,18 17,18 Z"/>
  </defs>
  <g fill="none" fill-rule="evenodd">
    <use fill="#000" fill-rule="nonzero" xlink:href="#apps-a"/>
  </g>
</svg>
