<svg xmlns="http://www.w3.org/2000/svg" xmlns:xlink="http://www.w3.org/1999/xlink" width="14" height="14" viewBox="0 0 14 14">
  <defs>
    <path id="close-a" d="M13.7,12.3 C14.1,12.7 14.1,13.3 13.7,13.7 C13.5,13.9 13.3,14 13,14 C12.7,14 12.5,13.9 12.3,13.7 L7,8.4 L1.7,13.7 C1.5,13.9 1.3,14 1,14 C0.7,14 0.5,13.9 0.3,13.7 C-0.1,13.3 -0.1,12.7 0.3,12.3 L5.6,7 L0.3,1.7 C-0.1,1.3 -0.1,0.7 0.3,0.3 C0.7,-0.1 1.3,-0.1 1.7,0.3 L7,5.6 L12.3,0.3 C12.7,-0.1 13.3,-0.1 13.7,0.3 C14.1,0.7 14.1,1.3 13.7,1.7 L8.4,7 L13.7,12.3 Z"/>
  </defs>
  <g fill="none" fill-rule="evenodd">
    <use fill="#000" fill-rule="nonzero" xlink:href="#close-a"/>
  </g>
</svg>
