<svg xmlns="http://www.w3.org/2000/svg" xmlns:xlink="http://www.w3.org/1999/xlink" width="16" height="22" viewBox="0 0 16 22">
  <defs>
    <path id="smartphone-a" d="M13,0 L3,0 C1.3,0 0,1.3 0,3 L0,19 C0,20.7 1.3,22 3,22 L13,22 C14.7,22 16,20.7 16,19 L16,3 C16,1.3 14.7,0 13,0 Z M14,19 C14,19.6 13.6,20 13,20 L3,20 C2.4,20 2,19.6 2,19 L2,3 C2,2.4 2.4,2 3,2 L13,2 C13.6,2 14,2.4 14,3 L14,19 Z M8,18 C9.1045695,18 10,17.1045695 10,16 C10,14.8954305 9.1045695,14 8,14 C6.8954305,14 6,14.8954305 6,16 C6,17.1045695 6.8954305,18 8,18 Z"/>
  </defs>
  <g fill="none" fill-rule="evenodd">
    <use fill="#000" fill-rule="nonzero" xlink:href="#smartphone-a"/>
  </g>
</svg>
