<svg xmlns="http://www.w3.org/2000/svg" xmlns:xlink="http://www.w3.org/1999/xlink" width="22" height="22" viewBox="0 0 22 22">
  <defs>
    <path id="infos-a" d="M11,0 C4.9,0 0,4.9 0,11 C0,17.1 4.9,22 11,22 C17.1,22 22,17.1 22,11 C22,4.9 17.1,0 11,0 Z M11,20 C6,20 2,16 2,11 C2,6 6,2 11,2 C16,2 20,6 20,11 C20,16 16,20 11,20 Z M12,11 L12,15 C12,15.6 11.6,16 11,16 C10.4,16 10,15.6 10,15 L10,11 C10,10.4 10.4,10 11,10 C11.6,10 12,10.4 12,11 Z M11.7,6.3 C11.9,6.5 12,6.7 12,7 C12,7.3 11.9,7.5 11.7,7.7 C11.5,7.9 11.3,8 11,8 C10.9,8 10.9,8 10.8,8 C10.7,8 10.7,8 10.6,7.9 C10.5,7.9 10.5,7.8 10.4,7.8 C10.3,7.8 10.3,7.7 10.3,7.7 C10.1,7.5 10,7.3 10,7 C10,6.7 10.1,6.5 10.3,6.3 C10.3,6.3 10.4,6.2 10.4,6.2 C10.5,6.2 10.5,6.1 10.6,6.1 C10.7,6.1 10.7,6.1 10.8,6 C11.1,6 11.5,6.1 11.7,6.3 Z"/>
  </defs>
  <g fill="none" fill-rule="evenodd">
    <use fill="#000" fill-rule="nonzero" xlink:href="#infos-a"/>
  </g>
</svg>
